<svg width="24" height="25" viewBox="0 0 24 25" fill="none" xmlns="http://www.w3.org/2000/svg">
<path d="M5.13651 9.62457L1.33622 21.4815C1.31367 21.5474 1.30707 21.6177 1.31697 21.6866C1.32688 21.7555 1.35299 21.8211 1.39318 21.878C1.43337 21.9349 1.48647 21.9814 1.54814 22.0138C1.60981 22.0462 1.67827 22.0634 1.74791 22.0642H2.812C2.90697 22.0639 2.99931 22.0329 3.07522 21.9758C3.15113 21.9188 3.20655 21.8387 3.23319 21.7475L3.82857 19.8473H9.0318L8.95896 19.7302L9.61135 21.7475C9.638 21.8387 9.69341 21.9188 9.76932 21.9758C9.84524 22.0329 9.93757 22.0639 10.0325 22.0642H11.0966C11.1663 22.0646 11.2351 22.0484 11.2974 22.0171C11.3596 21.9857 11.4135 21.94 11.4546 21.8837C11.4958 21.8274 11.5229 21.7622 11.5339 21.6934C11.5449 21.6245 11.5394 21.5541 11.5178 21.4878L7.71754 9.6309C7.69044 9.54 7.63491 9.46019 7.55909 9.40319C7.48328 9.34618 7.39119 9.315 7.29634 9.31421H5.5482C5.45567 9.31609 5.36607 9.34709 5.29216 9.40281C5.21826 9.45852 5.16379 9.53612 5.13651 9.62457ZM4.46195 17.9472L6.42227 11.8446L8.39842 17.9472H4.46195Z" fill="#F41A1C"/>
<path d="M15.8723 9.31738H14.8589C14.614 9.31738 14.4155 9.51589 14.4155 9.76075V21.6177C14.4155 21.8625 14.614 22.061 14.8589 22.061H15.8723C16.1172 22.061 16.3157 21.8625 16.3157 21.6177V9.76075C16.3157 9.51589 16.1172 9.31738 15.8723 9.31738Z" fill="#F41A1C"/>
<path d="M17.6724 3.1653C17.8413 2.63181 18.5962 2.63181 18.7651 3.1653L19.3836 5.11965C19.4399 5.29747 19.5792 5.43678 19.7571 5.49306L21.7114 6.11163C22.2449 6.28049 22.2449 7.03543 21.7114 7.20429L19.7571 7.82286C19.5792 7.87914 19.4399 8.01845 19.3836 8.19627L18.7651 10.1506C18.5962 10.6841 17.8413 10.6841 17.6724 10.1506L17.0539 8.19627C16.9976 8.01845 16.8583 7.87914 16.6804 7.82286L14.7261 7.20429C14.1926 7.03543 14.1926 6.28049 14.7261 6.11163L16.6804 5.49306C16.8583 5.43678 16.9976 5.29747 17.0539 5.11965L17.6724 3.1653Z" fill="#F41A1C"/>
</svg>
