<svg width="24" height="25" viewBox="0 0 24 25" fill="none" xmlns="http://www.w3.org/2000/svg">
<path d="M5 19.377H6.425L16.2 9.60195L14.775 8.17695L5 17.952V19.377ZM3 21.377V17.127L16.2 3.95195C16.4 3.76862 16.6208 3.62695 16.8625 3.52695C17.1042 3.42695 17.3583 3.37695 17.625 3.37695C17.8917 3.37695 18.15 3.42695 18.4 3.52695C18.65 3.62695 18.8667 3.77695 19.05 3.97695L20.425 5.37695C20.625 5.56029 20.7708 5.77695 20.8625 6.02695C20.9542 6.27695 21 6.52695 21 6.77695C21 7.04362 20.9542 7.29779 20.8625 7.53945C20.7708 7.78112 20.625 8.00195 20.425 8.20195L7.25 21.377H3ZM15.475 8.90195L14.775 8.17695L16.2 9.60195L15.475 8.90195Z" fill="#161614"/>
</svg>
