<svg width="24" height="25" viewBox="0 0 24 25" fill="none" xmlns="http://www.w3.org/2000/svg">
<path d="M12 12.377C12.55 12.377 13.0208 12.1811 13.4125 11.7895C13.8042 11.3978 14 10.927 14 10.377C14 9.82695 13.8042 9.35612 13.4125 8.96445C13.0208 8.57279 12.55 8.37695 12 8.37695C11.45 8.37695 10.9792 8.57279 10.5875 8.96445C10.1958 9.35612 10 9.82695 10 10.377C10 10.927 10.1958 11.3978 10.5875 11.7895C10.9792 12.1811 11.45 12.377 12 12.377ZM12 19.727C14.0333 17.8603 15.5417 16.1645 16.525 14.6395C17.5083 13.1145 18 11.7603 18 10.577C18 8.76029 17.4208 7.27279 16.2625 6.11445C15.1042 4.95612 13.6833 4.37695 12 4.37695C10.3167 4.37695 8.89583 4.95612 7.7375 6.11445C6.57917 7.27279 6 8.76029 6 10.577C6 11.7603 6.49167 13.1145 7.475 14.6395C8.45833 16.1645 9.96667 17.8603 12 19.727ZM12 22.377C9.31667 20.0936 7.3125 17.9728 5.9875 16.0145C4.6625 14.0561 4 12.2436 4 10.577C4 8.07695 4.80417 6.08529 6.4125 4.60195C8.02083 3.11862 9.88333 2.37695 12 2.37695C14.1167 2.37695 15.9792 3.11862 17.5875 4.60195C19.1958 6.08529 20 8.07695 20 10.577C20 12.2436 19.3375 14.0561 18.0125 16.0145C16.6875 17.9728 14.6833 20.0936 12 22.377Z" fill="#161614"/>
</svg>
