<svg width="48" height="48" viewBox="0 0 48 48" fill="none" xmlns="http://www.w3.org/2000/svg">
<g clip-path="url(#clip0_2868_5239)">
<rect width="48" height="48" rx="24" fill="#F0EEEE"/>
<path d="M24 24C21.3875 24 19.151 23.0698 17.2906 21.2094C15.4302 19.349 14.5 17.1125 14.5 14.5C14.5 11.8875 15.4302 9.65104 17.2906 7.79062C19.151 5.93021 21.3875 5 24 5C26.6125 5 28.849 5.93021 30.7094 7.79062C32.5698 9.65104 33.5 11.8875 33.5 14.5C33.5 17.1125 32.5698 19.349 30.7094 21.2094C28.849 23.0698 26.6125 24 24 24ZM5 52L5 36.35C5 35.0042 5.34635 33.7672 6.03906 32.6391C6.73177 31.5109 7.65208 30.65 8.8 30.0562C11.2542 28.8292 13.7479 27.9089 16.2812 27.2953C18.8146 26.6818 21.3875 26.375 24 26.375C26.6125 26.375 29.1854 26.6818 31.7187 27.2953C34.2521 27.9089 36.7458 28.8292 39.2 30.0562C40.3479 30.65 41.2682 31.5109 41.9609 32.6391C42.6536 33.7672 43 35.0042 43 36.35V52H5Z" fill="#6B6B6B"/>
</g>
<rect x="0.5" y="0.5" width="47" height="47" rx="23.5" stroke="#F0EEEE"/>
<defs>
<clipPath id="clip0_2868_5239">
<rect width="48" height="48" rx="24" fill="white"/>
</clipPath>
</defs>
</svg>
