<svg width="48" height="49" viewBox="0 0 48 49" fill="none" xmlns="http://www.w3.org/2000/svg">
<g clip-path="url(#clip0_2868_5261)">
<rect y="0.434113" width="48" height="48" rx="24" fill="#8F8F8F"/>
<path d="M24 24.4341C21.3875 24.4341 19.151 23.5039 17.2906 21.6435C15.4302 19.7831 14.5 17.5466 14.5 14.9341C14.5 12.3216 15.4302 10.0852 17.2906 8.22474C19.151 6.36432 21.3875 5.43411 24 5.43411C26.6125 5.43411 28.849 6.36432 30.7094 8.22474C32.5698 10.0852 33.5 12.3216 33.5 14.9341C33.5 17.5466 32.5698 19.7831 30.7094 21.6435C28.849 23.5039 26.6125 24.4341 24 24.4341ZM5 52.4341L5 36.7841C5 35.4383 5.34636 34.2013 6.03907 33.0732C6.73177 31.945 7.65209 31.0841 8.8 30.4904C11.2542 29.2633 13.7479 28.343 16.2813 27.7294C18.8146 27.1159 21.3875 26.8091 24 26.8091C26.6125 26.8091 29.1854 27.1159 31.7188 27.7294C34.2521 28.343 36.7458 29.2633 39.2 30.4904C40.3479 31.0841 41.2682 31.945 41.9609 33.0732C42.6536 34.2013 43 35.4383 43 36.7841V52.4341H5Z" fill="white"/>
</g>
<rect x="0.5" y="0.934113" width="47" height="47" rx="23.5" stroke="#8F8F8F"/>
<defs>
<clipPath id="clip0_2868_5261">
<rect y="0.434113" width="48" height="48" rx="24" fill="white"/>
</clipPath>
</defs>
</svg>
