<svg height='100px' width='100px'  fill="#009DA0" xmlns="http://www.w3.org/2000/svg" xmlns:xlink="http://www.w3.org/1999/xlink" version="1.1" x="0px" y="0px" viewBox="0 0 236.717 215.771" style="enable-background:new 0 0 236.717 215.771;" xml:space="preserve"><g><path d="M94.444,71.398c-2.689,3.505-2.029,8.527,1.478,11.218c1.452,1.114,3.165,1.653,4.864,1.653   c2.402,0,4.778-1.077,6.354-3.131c7.614-9.933,18.084-15.532,28.269-18.67c2.507-0.774,4.983-1.387,7.366-1.874   c-0.001,0.002-0.002,0.004-0.003,0.007c-6.805,20.174-8.268,33.305-5.682,55.52c1.511,7.773,4.866,12.173,8.962,14.638   c0.062,0.994,0.102,2.081,0.101,3.258c-0.007,6.846-1.272,16.407-6.656,26.654c-5.418,10.242-14.929,21.476-32.89,31.734   c-5.999,3.414-8.096,11.046-4.682,17.048c2.305,4.047,6.529,6.319,10.876,6.319c2.097,0,4.22-0.528,6.172-1.639   c21.615-12.262,35.035-27.269,42.654-41.833c7.044-13.4,9.195-26.164,9.488-35.846l22.085,3.97l19.682,42.226   c2.917,6.258,10.352,8.965,16.61,6.05c6.259-2.917,8.965-10.355,6.051-16.61h-0.002l-22.421-48.102   c-1.714-3.675-5.128-6.307-9.119-7.022l-31.719-5.703c-0.187-7.163,0.564-14.579,1.665-21.682   c-1.467-0.689-2.733-1.435-3.782-2.137c-3.564-2.377-6.663-5.457-9.47-9.416c-2.721-3.87-4.991-8.35-6.399-12.623l-0.04-0.119   c-1.644-5.344,1.324-10.951,6.591-12.575c0.96-0.295,1.949-0.443,2.944-0.443c4.408,0,8.248,2.831,9.554,7.048l0.049,0.141   c0.073,0.209,0.188,0.529,0.354,0.94c0.315,0.79,0.845,2.012,1.6,3.385c0.791,1.474,1.729,2.86,2.715,4.048   c0.025-0.127,0.053-0.261,0.077-0.387c2.869-9.953-0.885-21.865-9.42-23.992c-1.237-0.308-2.556-0.47-3.92-0.484   c-0.01-0.001-0.019-0.003-0.028-0.004h-0.002c-0.183-0.013-1.867-0.145-4.652-0.145c-5.989,0.009-17.078,0.575-29.412,4.358   C118.415,50.947,104.677,58.074,94.444,71.398z"></path><ellipse transform="matrix(0.2268 -0.9739 0.9739 0.2268 125.6214 203.2337)" cx="190.808" cy="22.5" rx="22.495" ry="22.495"></ellipse><path d="M171.893,61.14c-0.182-0.45-0.307-0.8-0.382-1.017c-0.037-0.105-0.063-0.181-0.075-0.218v0   c-1.305-4.216-5.776-6.582-9.997-5.285c-4.222,1.301-6.592,5.776-5.291,10h-0.002c0.165,0.467,1.86,6.098,6.182,12.25   c2.176,3.066,5.048,6.307,8.954,8.911c3.859,2.587,8.876,4.456,14.52,4.456c0.029,0,0.06,0,0.089-0.001   c9.116-0.028,18.792-4.481,29.289-14.058c3.266-2.976,3.501-8.036,0.525-11.3c-2.977-3.265-8.036-3.501-11.301-0.525   c-8.845,8.056-14.951,9.912-18.514,9.883c-2.297-0.018-3.997-0.641-5.758-1.783c-2.606-1.687-5.009-4.863-6.537-7.709   C172.822,63.336,172.251,62.04,171.893,61.14z"></path><rect y="35.084" width="109.998" height="5.334"></rect><rect x="13.332" y="49.084" width="51.334" height="5.334"></rect><rect x="42.664" y="21.084" width="51.334" height="5.334"></rect></g></svg>