<svg height='100px' width='100px'  fill="#009DA0" xmlns="http://www.w3.org/2000/svg" xmlns:xlink="http://www.w3.org/1999/xlink" version="1.1" x="0px" y="0px" viewBox="0 0 100 100" style="enable-background:new 0 0 100 100;" xml:space="preserve"><g><circle cx="25.4" cy="14.8" r="6.1"></circle><path d="M3.1,0C4.6-0.2,6,0.5,6.8,1.7l0,0l10.3,17.1c1.3,2.2,3.6,3.5,6.2,3.6l3.6,0.1c1.7,0,3.3-0.4,4.7-1.3l16.1-10.5   c0.2-0.1,0.3-0.2,0.5-0.3l0,0l0,0c0.8-0.4,1.8-0.6,2.8-0.4c1.6,0.3,3,1.7,3.3,3.3c0.3,1.6-0.4,3.1-1.5,4l0,0   c-0.2,0.1-0.3,0.2-0.5,0.3L32.5,30.7l0.9,10.4l10.8-6l0,0c0.8-0.6,1.7-1,2.8-1c1.6,0,3,0.9,3.8,2.2l0,0c0,0.1,0.1,0.1,0.1,0.2   L65,61.7c0.7,0.8,1.1,1.9,0.9,3.1c-0.3,1.5-1.5,2.8-3.1,3c-1.5,0.2-2.9-0.5-3.7-1.6l-13.8-22L28.3,56l33.4,20.3c0,0,0,0,0,0l0,0   c1.4,0.8,2.2,2.4,1.8,4.1c-0.3,1.3-1.3,2.3-2.6,2.7c-1.2,0.3-2.3,0-3.1-0.6L20,59.9c-2.2-1.6-2.7-3-2.7-4.5v-5.8V34.7   c0-0.7-0.5-2-0.8-2.6L0.8,5.9c-0.6-0.8-1-1.9-0.7-3C0.4,1.4,1.6,0.3,3.1,0z"></path><polygon points="72.1,70 100,70 100,76.1 72.1,76.1 72.1,100 66,100 66,76.1 66,70  "></polygon></g></svg>