<svg height='100px' width='100px'  fill="#009DA0" xmlns="http://www.w3.org/2000/svg" xmlns:xlink="http://www.w3.org/1999/xlink" version="1.1" x="0px" y="0px" viewBox="0 0 109 109" style="enable-background:new 0 0 109 109;" xml:space="preserve"><style type="text/css">

	.st0{fill:#009DA0;}

</style><path class="st0" d="M25.823,71.18h9.665c1.692,0,3.102-1.197,3.433-2.788c1.305-6.81,7.284-11.957,14.473-11.957  c7.211,0,13.205,5.182,14.483,12.021c0.356,1.558,1.747,2.724,3.414,2.724h9.674c0,15.228-12.343,27.57-27.57,27.57  C38.167,98.75,25.823,86.408,25.823,71.18z M42.219,32.518c-0.417-0.595-0.693-1.3-0.77-2.078c-0.234-2.397,1.521-4.531,3.917-4.765  l9.721-0.952l-2.071-11.05c-0.112-0.269-0.19-0.559-0.219-0.862c-0.012-0.128-0.014-0.247-0.011-0.372l-0.055-0.293l0.08-0.006  c0.172-1.314,1.229-2.382,2.606-2.518c1.372-0.133,2.614,0.71,3.039,1.966l0.078-0.008l5.918,15.942l-0.053,0.003  c0.053,0.214,0.095,0.431,0.119,0.657c0.234,2.399-1.519,4.533-3.916,4.767l-9.666,0.929l2.147,11.472  c0.038,0.151,0.072,0.304,0.091,0.465c0.156,1.603-1.015,3.03-2.619,3.186c-1.603,0.156-3.031-1.016-3.19-2.617L42.219,32.518z   M22.708,38.155c-0.625-0.698-0.712-1.756-0.151-2.554c0.562-0.797,1.584-1.074,2.452-0.724l0.033-0.045l11.252,4.166l-0.023,0.033  c0.142,0.07,0.278,0.145,0.407,0.237c1.391,0.979,1.729,2.895,0.754,4.288l-3.952,5.6l7.13,4.128c0.1,0.048,0.197,0.101,0.289,0.167  c0.932,0.654,1.155,1.938,0.499,2.867c-0.65,0.93-1.935,1.155-2.865,0.501l-9.788-3.625c-0.51-0.046-1.018-0.225-1.464-0.542  c-1.394-0.977-1.728-2.898-0.754-4.288l3.963-5.642l-6.866-3.976c-0.197-0.061-0.39-0.154-0.563-0.279  c-0.072-0.048-0.14-0.106-0.204-0.164l-0.178-0.103L22.708,38.155z M61.783,49.897l5.96-8.567c0.176-0.484,0.475-0.929,0.893-1.284  c1.295-1.104,3.24-0.946,4.34,0.348l4.465,5.251l5.574-5.653c0.104-0.173,0.244-0.333,0.408-0.473  c0.068-0.059,0.139-0.109,0.21-0.156l0.147-0.15l0.037,0.043c0.831-0.429,1.876-0.25,2.508,0.497  c0.632,0.741,0.645,1.801,0.087,2.552l0.033,0.044l-6.85,9.85l-0.025-0.028c-0.103,0.117-0.211,0.231-0.333,0.333  c-1.295,1.104-3.237,0.948-4.338-0.35l-4.434-5.226l-5.781,5.867c-0.072,0.083-0.148,0.164-0.236,0.237  c-0.866,0.737-2.162,0.634-2.9-0.234C60.812,51.932,60.918,50.632,61.783,49.897z"></path></svg>